<mxfile host="app.diagrams.net" agent="Mozilla/5.0 (Macintosh; Intel Mac OS X 10_15_7) AppleWebKit/605.1.15 (KHTML, like Gecko) Version/17.4.1 Safari/605.1.15" version="24.7.17">
  <diagram name="Страница — 1" id="1hPXFgXhSr1WO4rUE2s8">
    <mxGraphModel dx="985" dy="1367" grid="1" gridSize="10" guides="1" tooltips="1" connect="1" arrows="1" fold="1" page="1" pageScale="1" pageWidth="1169" pageHeight="827" math="0" shadow="0">
      <root>
        <mxCell id="0" />
        <mxCell id="1" parent="0" />
        <mxCell id="Y2E87wazrkwQNpm6JytJ-1" value="" style="rounded=0;whiteSpace=wrap;html=1;" vertex="1" parent="1">
          <mxGeometry x="200" y="80" width="760" height="1280" as="geometry" />
        </mxCell>
        <mxCell id="Y2E87wazrkwQNpm6JytJ-2" value="&lt;b&gt;&lt;font style=&quot;font-size: 22px;&quot;&gt;USE CASE&lt;/font&gt;&lt;/b&gt;" style="text;html=1;align=center;verticalAlign=middle;resizable=0;points=[];autosize=1;strokeColor=none;fillColor=none;" vertex="1" parent="1">
          <mxGeometry x="510" y="39" width="140" height="40" as="geometry" />
        </mxCell>
        <mxCell id="Y2E87wazrkwQNpm6JytJ-6" value="&lt;span style=&quot;font-size: 19px;&quot;&gt;&lt;b&gt;Ограничения&lt;/b&gt;&lt;/span&gt;" style="rounded=0;whiteSpace=wrap;html=1;" vertex="1" parent="1">
          <mxGeometry x="200" y="320" width="380" height="80" as="geometry" />
        </mxCell>
        <mxCell id="Y2E87wazrkwQNpm6JytJ-7" value="&lt;font style=&quot;font-size: 15px;&quot;&gt;Пользователь должен иметь хотя бы один счёт, чтобы была возможность настраивать уведомления&lt;/font&gt;" style="rounded=0;whiteSpace=wrap;html=1;" vertex="1" parent="1">
          <mxGeometry x="580" y="320" width="380" height="80" as="geometry" />
        </mxCell>
        <mxCell id="Y2E87wazrkwQNpm6JytJ-8" value="&lt;span style=&quot;font-size: 19px;&quot;&gt;&lt;b&gt;Предусловие&lt;/b&gt;&lt;/span&gt;" style="rounded=0;whiteSpace=wrap;html=1;" vertex="1" parent="1">
          <mxGeometry x="200" y="240" width="380" height="80" as="geometry" />
        </mxCell>
        <mxCell id="Y2E87wazrkwQNpm6JytJ-9" value="&lt;p style=&quot;margin: 0px; font-style: normal; font-variant-caps: normal; font-stretch: normal; line-height: normal; font-family: &amp;quot;Helvetica Neue&amp;quot;; font-size-adjust: none; font-kerning: auto; font-variant-alternates: normal; font-variant-ligatures: normal; font-variant-numeric: normal; font-variant-east-asian: normal; font-variant-position: normal; font-feature-settings: normal; font-optical-sizing: auto; font-variation-settings: normal;&quot;&gt;&lt;font style=&quot;font-size: 15px;&quot;&gt;Пользователь авторизован в банковском приложении&lt;/font&gt;&lt;/p&gt;" style="rounded=0;whiteSpace=wrap;html=1;" vertex="1" parent="1">
          <mxGeometry x="580" y="240" width="380" height="80" as="geometry" />
        </mxCell>
        <mxCell id="Y2E87wazrkwQNpm6JytJ-10" value="&lt;b&gt;&lt;font style=&quot;font-size: 19px;&quot;&gt;Акторы&lt;/font&gt;&lt;/b&gt;" style="rounded=0;whiteSpace=wrap;html=1;" vertex="1" parent="1">
          <mxGeometry x="200" y="160" width="380" height="80" as="geometry" />
        </mxCell>
        <mxCell id="Y2E87wazrkwQNpm6JytJ-11" value="&lt;p style=&quot;margin: 0px; font-style: normal; font-variant-caps: normal; font-stretch: normal; line-height: normal; font-family: &amp;quot;Helvetica Neue&amp;quot;; font-size-adjust: none; font-kerning: auto; font-variant-alternates: normal; font-variant-ligatures: normal; font-variant-numeric: normal; font-variant-east-asian: normal; font-variant-position: normal; font-feature-settings: normal; font-optical-sizing: auto; font-variation-settings: normal;&quot;&gt;&lt;font style=&quot;font-size: 15px;&quot;&gt;Пользователь банковского приложения.&lt;/font&gt;&lt;/p&gt;" style="rounded=0;whiteSpace=wrap;html=1;" vertex="1" parent="1">
          <mxGeometry x="580" y="160" width="380" height="80" as="geometry" />
        </mxCell>
        <mxCell id="Y2E87wazrkwQNpm6JytJ-12" value="&lt;b&gt;&lt;font style=&quot;font-size: 19px;&quot;&gt;Заголовок&lt;/font&gt;&lt;/b&gt;" style="rounded=0;whiteSpace=wrap;html=1;" vertex="1" parent="1">
          <mxGeometry x="200" y="80" width="380" height="80" as="geometry" />
        </mxCell>
        <mxCell id="Y2E87wazrkwQNpm6JytJ-13" value="&lt;p style=&quot;margin: 0px; font-style: normal; font-variant-caps: normal; font-stretch: normal; line-height: normal; font-family: &amp;quot;Helvetica Neue&amp;quot;; font-size-adjust: none; font-kerning: auto; font-variant-alternates: normal; font-variant-ligatures: normal; font-variant-numeric: normal; font-variant-east-asian: normal; font-variant-position: normal; font-feature-settings: normal; font-optical-sizing: auto; font-variation-settings: normal;&quot;&gt;&lt;font style=&quot;font-size: 15px;&quot;&gt;Изменение настроек уведомлений&lt;/font&gt;&lt;/p&gt;" style="rounded=0;whiteSpace=wrap;html=1;" vertex="1" parent="1">
          <mxGeometry x="580" y="80" width="380" height="80" as="geometry" />
        </mxCell>
        <mxCell id="Y2E87wazrkwQNpm6JytJ-14" value="&lt;span style=&quot;font-size: 19px;&quot;&gt;&lt;b&gt;Исключительный сценарий&lt;/b&gt;&lt;/span&gt;" style="rounded=0;whiteSpace=wrap;html=1;" vertex="1" parent="1">
          <mxGeometry x="200" y="1160" width="380" height="200" as="geometry" />
        </mxCell>
        <mxCell id="Y2E87wazrkwQNpm6JytJ-15" value="&lt;span style=&quot;font-size: 15px; text-align: start;&quot;&gt;После попытки сохранить изменения на шаге 7 происходит ошибка,&lt;/span&gt;&lt;div&gt;&lt;span style=&quot;font-size: 15px; text-align: start;&quot;&gt;Система выводит сообщение об ошибке: &quot;Не удалось сохранить изменения. Проверьте соединение с интернетом и повторите попытку&quot;&amp;nbsp;&lt;/span&gt;&lt;span style=&quot;font-size: 15px; text-align: start;&quot;&gt;Пользователь может выбрать &quot;Повторить&quot; для повторной отправки данных или вернуться к редактированию настроек.&lt;/span&gt;&lt;/div&gt;" style="rounded=0;whiteSpace=wrap;html=1;" vertex="1" parent="1">
          <mxGeometry x="580" y="1160" width="380" height="200" as="geometry" />
        </mxCell>
        <mxCell id="Y2E87wazrkwQNpm6JytJ-16" value="&lt;span style=&quot;font-size: 19px;&quot;&gt;&lt;b&gt;Альтернативный сценарий&lt;/b&gt;&lt;/span&gt;" style="rounded=0;whiteSpace=wrap;html=1;" vertex="1" parent="1">
          <mxGeometry x="200" y="840" width="380" height="320" as="geometry" />
        </mxCell>
        <mxCell id="Y2E87wazrkwQNpm6JytJ-17" value="&lt;ol style=&quot;font-size: 15px;&quot;&gt;&lt;li style=&quot;text-align: left; font-size: 15px;&quot;&gt;&lt;span style=&quot;font-family: &amp;quot;Helvetica Neue&amp;quot;;&quot;&gt;Пользователь открывает приложение и заходит в раздел &quot;Уведомления&quot;.&lt;/span&gt;&lt;br&gt;&lt;/li&gt;&lt;li style=&quot;text-align: left; font-size: 15px;&quot;&gt;&lt;font style=&quot;font-size: 15px;&quot;&gt;&lt;span style=&quot;font-family: &amp;quot;Helvetica Neue&amp;quot;;&quot;&gt;Пользователь выбирает подраздел &quot;Настройки&quot;, нажимая на шестерёнку.&lt;/span&gt;&lt;/font&gt;&lt;/li&gt;&lt;li style=&quot;text-align: left;&quot;&gt;&lt;span style=&quot;font-family: &amp;quot;Helvetica Neue&amp;quot;;&quot;&gt;Пользователь выбирает подраздел &quot;Уведомления&quot; в настройках.&lt;/span&gt;&lt;/li&gt;&lt;li style=&quot;text-align: left;&quot;&gt;&lt;font style=&quot;font-size: 15px;&quot;&gt;&lt;span style=&quot;font-family: &amp;quot;Helvetica Neue&amp;quot;;&quot;&gt;Система отображает список типов уведомлений (например, транзакции, акции банка, напоминания о платежах и т.д.).&lt;/span&gt;&lt;/font&gt;&lt;/li&gt;&lt;li style=&quot;text-align: left; font-size: 15px;&quot;&gt;&lt;font style=&quot;font-size: 15px;&quot;&gt;&lt;span style=&quot;font-family: &amp;quot;Helvetica Neue&amp;quot;;&quot;&gt;Пользователь отмечает галочками нужные типы уведомлений или отключает ненужные.&lt;/span&gt;&lt;/font&gt;&lt;/li&gt;&lt;li style=&quot;text-align: left; font-size: 15px;&quot;&gt;&lt;font style=&quot;font-size: 15px;&quot;&gt;&lt;span style=&quot;font-family: &amp;quot;Helvetica Neue&amp;quot;;&quot;&gt;Пользователь нажимает стрелочку назад.&lt;/span&gt;&lt;/font&gt;&lt;/li&gt;&lt;li style=&quot;text-align: left; font-size: 15px;&quot;&gt;&lt;font style=&quot;font-size: 15px;&quot;&gt;&lt;span style=&quot;font-family: &amp;quot;Helvetica Neue&amp;quot;;&quot;&gt;Пользователь выбирает сохранить изменения&lt;/span&gt;&lt;/font&gt;&lt;/li&gt;&lt;li style=&quot;text-align: left;&quot;&gt;&lt;span style=&quot;font-family: &amp;quot;Helvetica Neue&amp;quot;; font-size: 15px;&quot;&gt;Система подтверждает успешное изменение настроек уведомлений.&lt;/span&gt;&lt;/li&gt;&lt;/ol&gt;" style="rounded=0;whiteSpace=wrap;html=1;align=center;" vertex="1" parent="1">
          <mxGeometry x="580" y="840" width="380" height="320" as="geometry" />
        </mxCell>
        <mxCell id="Y2E87wazrkwQNpm6JytJ-18" value="&lt;span style=&quot;font-size: 19px;&quot;&gt;&lt;b&gt;Основной сценарий&lt;/b&gt;&lt;/span&gt;" style="rounded=0;whiteSpace=wrap;html=1;" vertex="1" parent="1">
          <mxGeometry x="200" y="480" width="380" height="360" as="geometry" />
        </mxCell>
        <mxCell id="Y2E87wazrkwQNpm6JytJ-19" value="&lt;ol style=&quot;font-size: 15px;&quot;&gt;&lt;br&gt;&lt;li style=&quot;text-align: left;&quot;&gt;&lt;span style=&quot;font-family: &amp;quot;Helvetica Neue&amp;quot;;&quot;&gt;Пользователь открывает приложение и заходит в раздел &quot;Настройки&quot;.&lt;/span&gt;&lt;br&gt;&lt;/li&gt;&lt;li style=&quot;text-align: left;&quot;&gt;&lt;span style=&quot;font-family: &amp;quot;Helvetica Neue&amp;quot;;&quot;&gt;Пользователь выбирает подраздел &quot;Уведомления&quot;.&lt;/span&gt;&lt;br&gt;&lt;/li&gt;&lt;li style=&quot;text-align: left;&quot;&gt;&lt;span style=&quot;font-family: &amp;quot;Helvetica Neue&amp;quot;;&quot;&gt;Система отображает список типов уведомлений (например, транзакции, акции банка, напоминания о платежах и т.д.).&lt;/span&gt;&lt;br&gt;&lt;/li&gt;&lt;li style=&quot;text-align: left;&quot;&gt;&lt;span style=&quot;font-family: &amp;quot;Helvetica Neue&amp;quot;;&quot;&gt;Пользователь отмечает галочками нужные типы уведомлений или отключает ненужные.&lt;/span&gt;&lt;br&gt;&lt;/li&gt;&lt;li style=&quot;text-align: left;&quot;&gt;&lt;span style=&quot;font-family: &amp;quot;Helvetica Neue&amp;quot;;&quot;&gt;Пользователь нажимает стрелочку назад.&lt;/span&gt;&lt;br&gt;&lt;/li&gt;&lt;li style=&quot;text-align: left;&quot;&gt;&lt;span style=&quot;font-family: &amp;quot;Helvetica Neue&amp;quot;;&quot;&gt;Пользователь выбирает сохранить изменения&lt;/span&gt;&lt;br&gt;&lt;/li&gt;&lt;li style=&quot;text-align: left;&quot;&gt;&lt;span style=&quot;font-family: &amp;quot;Helvetica Neue&amp;quot;;&quot;&gt;Система подтверждает успешное изменение настроек уведомлений.&lt;/span&gt;&lt;br&gt;&lt;/li&gt;&lt;/ol&gt;&lt;font face=&quot;Helvetica Neue&quot;&gt;&lt;span style=&quot;font-size: 15px;&quot;&gt;&lt;br&gt;&lt;/span&gt;&lt;/font&gt;&lt;ol style=&quot;font-size: 15px;&quot;&gt;&lt;br&gt;&lt;/ol&gt;" style="rounded=0;whiteSpace=wrap;html=1;" vertex="1" parent="1">
          <mxGeometry x="580" y="480" width="380" height="360" as="geometry" />
        </mxCell>
        <mxCell id="Y2E87wazrkwQNpm6JytJ-20" value="&lt;span style=&quot;font-size: 19px;&quot;&gt;&lt;b&gt;Триггер&lt;/b&gt;&lt;/span&gt;" style="rounded=0;whiteSpace=wrap;html=1;" vertex="1" parent="1">
          <mxGeometry x="200" y="400" width="380" height="80" as="geometry" />
        </mxCell>
        <mxCell id="Y2E87wazrkwQNpm6JytJ-21" value="&lt;font style=&quot;font-size: 15px;&quot;&gt;Пользователь нажимает кнопку &quot;уведомления &quot;в разделе настройки&lt;/font&gt;" style="rounded=0;whiteSpace=wrap;html=1;" vertex="1" parent="1">
          <mxGeometry x="580" y="400" width="380" height="80" as="geometry" />
        </mxCell>
      </root>
    </mxGraphModel>
  </diagram>
</mxfile>
